# xmcd
#
# Track frame offsets: 
#        150
#        21161
#        45870
#        66984
#        90390
#        108980
#        130679
#        151201
#        165621
#        181342
#        202820
#        225889
#        242426
#        263117
#        282450
#        299317
#
# Disc length: 4344 seconds
#
# Revision: 0
# Processed by: cddbd v1.5.2PL0 Copyright (c) Steve Scherf et al.
# Submitted via: ExactAudioCopy v0.95a5
#
DISCID=c710f610
DTITLE=The Crudup Brothers - Franktown Blues
DYEAR=2000
DGENRE=Blues
TTITLE0=That's Alright Mama
TTITLE1=Greyhound Bus
TTITLE2=Mean Old Frisco Blues
TTITLE3=Going Down In Style
TTITLE4=Franktown Blues
TTITLE5=Who's Talking
TTITLE6=Memories Of Miseries
TTITLE7=My Kind Of Woman
TTITLE8=Fur Slippers
TTITLE9=When Love Is On His Knees
TTITLE10=Something On My Mind
TTITLE11=Move A Little Closer
TTITLE12=Old And Grey
TTITLE13=Look On Yonders Wall
TTITLE14=She's Got The Key
TTITLE15=Malibu Jammin' For James
EXTD=
EXTT0=
EXTT1=
EXTT2=
EXTT3=
EXTT4=
EXTT5=
EXTT6=
EXTT7=
EXTT8=
EXTT9=
EXTT10=
EXTT11=
EXTT12=
EXTT13=
EXTT14=
EXTT15=
PLAYORDER=
